ffmpeg started on 2016-12-02 at 08:54:18
Report written to "Output/x264/results/ffmpeg/old_town_cross_2160p50slower12000k.log"
Command line:
Tools/ffmpeg/ffmpeg -benchmark -y -i Input/y4m/old_town_cross_2160p50.y4m -c:v libx264 -preset slower -b:v 12000k -an Output/x264/encoded/old_town_cross_2160p50slower12000k.mkv
ffmpeg version N-82227-gdb23fde Copyright (c) 2000-2016 the FFmpeg developers
  built with gcc 5.4.0 (Ubuntu 5.4.0-6ubuntu1~16.04.2) 20160609
  configuration: --prefix=/home/jaroslav/ffmpeg_build --pkg-config-flags=--static --extra-cflags=-I/home/jaroslav/ffmpeg_build/include --extra-ldflags=-L/home/jaroslav/ffmpeg_build/lib --bindir=/home/jaroslav/bin --enable-gpl --enable-libass --enable-libfdk-aac --enable-libfreetype --enable-libmp3lame --enable-libopus --enable-libtheora --enable-libvorbis --enable-libvpx --enable-libx264 --enable-libx265 --enable-nvenc --enable-libmfx --enable-libxvid --enable-libgsm --enable-libopencore-amrnb --enable-version3 --enable-nonfree
  libavutil      55. 35.100 / 55. 35.100
  libavcodec     57. 66.101 / 57. 66.101
  libavformat    57. 57.100 / 57. 57.100
  libavdevice    57.  2.100 / 57.  2.100
  libavfilter     6. 66.100 /  6. 66.100
  libswscale      4.  3.100 /  4.  3.100
  libswresample   2.  4.100 /  2.  4.100
  libpostproc    54.  2.100 / 54.  2.100
Input #0, yuv4mpegpipe, from 'Input/y4m/old_town_cross_2160p50.y4m':
  Duration: 00:00:10.00, start: 0.000000, bitrate: 4976642 kb/s
    Stream #0:0: Video: rawvideo (I420 / 0x30323449), yuv420p(progressive), 3840x2160, SAR 1:1 DAR 16:9, 50 fps, 50 tbr, 50 tbn, 50 tbc
[libx264 @ 0x40b6120] using SAR=1/1
[libx264 @ 0x40b6120] DPB size (8 frames, 259200 mbs) > level limit (5 frames, 184320 mbs)
[libx264 @ 0x40b6120] using cpu capabilities: MMX2 SSE2Fast SSSE3 SSE4.2 AVX FMA3 AVX2 LZCNT BMI2
[libx264 @ 0x40b6120] profile High, level 5.2
[libx264 @ 0x40b6120] 264 - core 148 - H.264/MPEG-4 AVC codec - Copyleft 2003-2016 - http://www.videolan.org/x264.html - options: cabac=1 ref=8 deblock=1:0:0 analyse=0x3:0x133 me=umh subme=9 psy=1 psy_rd=1.00:0.00 mixed_ref=1 me_range=16 chroma_me=1 trellis=2 8x8dct=1 cqm=0 deadzone=21,11 fast_pskip=1 chroma_qp_offset=-2 threads=6 lookahead_threads=1 sliced_threads=0 nr=0 decimate=1 interlaced=0 bluray_compat=0 constrained_intra=0 bframes=3 b_pyramid=2 b_adapt=2 b_bias=0 direct=3 weightb=1 open_gop=0 weightp=2 keyint=250 keyint_min=25 scenecut=40 intra_refresh=0 rc_lookahead=60 rc=abr mbtree=1 bitrate=12000 ratetol=1.0 qcomp=0.60 qpmin=0 qpmax=69 qpstep=4 ip_ratio=1.40 aq=1:1.00
Output #0, matroska, to 'Output/x264/encoded/old_town_cross_2160p50slower12000k.mkv':
  Metadata:
    encoder         : Lavf57.57.100
    Stream #0:0: Video: h264 (libx264) (H264 / 0x34363248), yuv420p, 3840x2160 [SAR 1:1 DAR 16:9], q=-1--1, 12000 kb/s, 50 fps, 1k tbn, 50 tbc
    Metadata:
      encoder         : Lavc57.66.101 libx264
    Side data:
      cpb: bitrate max/min/avg: 0/0/12000000 buffer size: 0 vbv_delay: -1
Stream mapping:
  Stream #0:0 -> #0:0 (rawvideo (native) -> h264 (libx264))
Press [q] to stop, [?] for help
frame=   62 fps=0.0 q=0.0 size=       0kB time=00:00:00.00 bitrate=N/A speed=   0x    frame=   67 fps= 17 q=0.0 size=       0kB time=00:00:00.00 bitrate=N/A speed=   0x    frame=   72 fps= 13 q=32.0 size=       1kB time=-00:00:00.01 bitrate=N/A speed=N/A    frame=   73 fps= 11 q=32.0 size=       1kB time=00:00:00.00 bitrate=5888.0kbits/s speed=0.000153x    frame=   75 fps= 10 q=35.0 size=       1kB time=00:00:00.04 bitrate= 143.6kbits/s speed=0.00569x    frame=   78 fps=9.8 q=45.0 size=       1kB time=00:00:00.10 bitrate=  58.3kbits/s speed=0.0127x    frame=   81 fps=9.4 q=47.0 size=       1kB time=00:00:00.16 bitrate=  36.6kbits/s speed=0.0188x    frame=   85 fps=9.2 q=44.0 size=       1kB time=00:00:00.24 bitrate=  24.4kbits/s speed=0.026x    frame=   88 fps=8.9 q=45.0 size=       1kB time=00:00:00.30 bitrate=  19.6kbits/s speed=0.0306x    frame=   92 fps=8.7 q=43.0 size=       1kB time=00:00:00.38 bitrate=  15.5kbits/s speed=0.036x    frame=   96 fps=8.5 q=41.0 size=       1kB time=00:00:00.46 bitrate=  12.8kbits/s speed=0.041x    frame=  100 fps=8.2 q=40.0 size=       1kB time=00:00:00.54 bitrate=  10.9kbits/s speed=0.0442x    frame=  105 fps=8.2 q=39.0 size=       1kB time=00:00:00.64 bitrate=   9.2kbits/s speed=0.05x    frame=  107 fps=7.8 q=39.0 size=       1kB time=00:00:00.68 bitrate=   8.6kbits/s speed=0.0495x    frame=  111 fps=7.8 q=38.0 size=       1kB time=00:00:00.76 bitrate=   7.7kbits/s speed=0.0532x    frame=  113 fps=7.5 q=38.0 size=       1kB time=00:00:00.80 bitrate=   7.4kbits/s speed=0.0535x    frame=  115 fps=7.3 q=37.0 size=       1kB time=00:00:00.84 bitrate=   7.0kbits/s speed=0.0537x    frame=  118 fps=7.3 q=38.0 size=       1kB time=00:00:00.90 bitrate=   6.5kbits/s speed=0.0556x    frame=  122 fps=7.0 q=37.0 size=       1kB time=00:00:00.98 bitrate=   6.0kbits/s speed=0.0561x    frame=  126 fps=6.8 q=37.0 size=       1kB time=00:00:01.06 bitrate=   5.5kbits/s speed=0.0575x    frame=  129 fps=6.7 q=37.0 size=       1kB time=00:00:01.12 bitrate=   5.3kbits/s speed=0.0583x    frame=  131 fps=6.6 q=36.0 size=       1kB time=00:00:01.16 bitrate=   5.1kbits/s speed=0.0588x    frame=  133 fps=6.5 q=36.0 size=       1kB time=00:00:01.20 bitrate=   4.9kbits/s speed=0.0588x    frame=  137 fps=6.4 q=36.0 size=       1kB time=00:00:01.28 bitrate=   4.6kbits/s speed=0.0598x    frame=  138 fps=6.2 q=36.0 size=       1kB time=00:00:01.30 bitrate=   4.5kbits/s speed=0.0586x    frame=  142 fps=6.3 q=36.0 size=       1kB time=00:00:01.38 bitrate=   4.3kbits/s speed=0.0608x    frame=  144 fps=6.1 q=35.0 size=       1kB time=00:00:01.42 bitrate=   4.1kbits/s speed=0.0606x    frame=  146 fps=6.0 q=35.0 size=       1kB time=00:00:01.46 bitrate=   4.0kbits/s speed=0.0601x    frame=  149 fps=5.9 q=35.0 size=       1kB time=00:00:01.52 bitrate=   3.9kbits/s speed=0.0606x    frame=  152 fps=5.9 q=35.0 size=       1kB time=00:00:01.58 bitrate=   3.7kbits/s speed=0.0616x    frame=  154 fps=5.8 q=35.0 size=       1kB time=00:00:01.62 bitrate=   3.6kbits/s speed=0.0607x    frame=  158 fps=5.6 q=35.0 size=       1kB time=00:00:01.70 bitrate=   3.5kbits/s speed=0.0607x    frame=  162 fps=5.6 q=34.0 size=       1kB time=00:00:01.78 bitrate=   3.3kbits/s speed=0.0618x    frame=  164 fps=5.5 q=35.0 size=       1kB time=00:00:01.82 bitrate=   3.2kbits/s speed=0.0616x    frame=  165 fps=5.5 q=35.0 size=       1kB time=00:00:01.84 bitrate=   3.2kbits/s speed=0.061x    frame=  168 fps=5.4 q=34.0 size=       1kB time=00:00:01.90 bitrate=   3.1kbits/s speed=0.0616x    frame=  171 fps=5.3 q=34.0 size=       1kB time=00:00:01.96 bitrate=   3.0kbits/s speed=0.0613x    frame=  174 fps=5.3 q=34.0 size=       1kB time=00:00:02.02 bitrate=   2.9kbits/s speed=0.0618x    frame=  177 fps=5.2 q=34.0 size=       1kB time=00:00:02.08 bitrate=   2.8kbits/s speed=0.0615x    frame=  179 fps=5.2 q=34.0 size=       1kB time=00:00:02.12 bitrate=   2.8kbits/s speed=0.0616x    frame=  183 fps=5.2 q=34.0 size=       1kB time=00:00:02.20 bitrate=   2.7kbits/s speed=0.062x    frame=  185 fps=5.1 q=34.0 size=       1kB time=00:00:02.24 bitrate=   2.6kbits/s speed=0.0623x    frame=  187 fps=5.1 q=34.0 size=       1kB time=00:00:02.28 bitrate=   2.6kbits/s speed=0.0619x    frame=  189 fps=5.0 q=34.0 size=       1kB time=00:00:02.32 bitrate=   2.5kbits/s speed=0.062x    frame=  192 fps=5.0 q=34.0 size=       1kB time=00:00:02.38 bitrate=   2.5kbits/s speed=0.0624x    frame=  194 fps=4.9 q=34.0 size=       1kB time=00:00:02.42 bitrate=   2.4kbits/s speed=0.0617x    frame=  197 fps=4.9 q=34.0 size=       1kB time=00:00:02.48 bitrate=   2.4kbits/s speed=0.0623x    frame=  198 fps=4.9 q=34.0 size=       1kB time=00:00:02.50 bitrate=   2.4kbits/s speed=0.0619x    frame=  200 fps=4.9 q=34.0 size=       1kB time=00:00:02.54 bitrate=   2.3kbits/s speed=0.0619x    frame=  202 fps=4.9 q=34.0 size=       1kB time=00:00:02.58 bitrate=   2.3kbits/s speed=0.0621x    frame=  204 fps=4.8 q=34.0 size=       1kB time=00:00:02.62 bitrate=   2.2kbits/s speed=0.062x    frame=  206 fps=4.8 q=34.0 size=       1kB time=00:00:02.66 bitrate=   2.2kbits/s speed=0.0615x    frame=  210 fps=4.8 q=34.0 size=       1kB time=00:00:02.74 bitrate=   2.1kbits/s speed=0.0623x    frame=  212 fps=4.7 q=34.0 size=       1kB time=00:00:02.78 bitrate=   2.1kbits/s speed=0.0622x    frame=  214 fps=4.7 q=34.0 size=       1kB time=00:00:02.82 bitrate=   2.1kbits/s speed=0.0614x    frame=  219 fps=4.7 q=34.0 size=       1kB time=00:00:02.92 bitrate=   2.0kbits/s speed=0.0627x    frame=  220 fps=4.7 q=34.0 size=       1kB time=00:00:02.94 bitrate=   2.0kbits/s speed=0.0622x    frame=  222 fps=4.6 q=34.0 size=       1kB time=00:00:02.98 bitrate=   2.0kbits/s speed=0.0613x    frame=  226 fps=4.6 q=34.0 size=       1kB time=00:00:03.06 bitrate=   1.9kbits/s speed=0.0621x    frame=  228 fps=4.6 q=34.0 size=       1kB time=00:00:03.10 bitrate=   1.9kbits/s speed=0.0622x    frame=  229 fps=4.5 q=34.0 size=       1kB time=00:00:03.12 bitrate=   1.9kbits/s speed=0.0618x    frame=  230 fps=4.5 q=34.0 size=       1kB time=00:00:03.14 bitrate=   1.9kbits/s speed=0.0615x    frame=  232 fps=4.5 q=33.0 size=       1kB time=00:00:03.18 bitrate=   1.9kbits/s speed=0.0614x    frame=  237 fps=4.5 q=33.0 size=       1kB time=00:00:03.28 bitrate=   1.8kbits/s speed=0.062x    frame=  238 fps=4.4 q=33.0 size=       1kB time=00:00:03.30 bitrate=   1.8kbits/s speed=0.0617x    frame=  242 fps=4.4 q=33.0 size=       1kB time=00:00:03.38 bitrate=   1.7kbits/s speed=0.062x    frame=  244 fps=4.4 q=33.0 size=       1kB time=00:00:03.42 bitrate=   1.7kbits/s speed=0.0616x    frame=  247 fps=4.4 q=33.0 size=       1kB time=00:00:03.48 bitrate=   1.7kbits/s speed=0.0618x    frame=  249 fps=4.4 q=33.0 size=       1kB time=00:00:03.52 bitrate=   1.7kbits/s speed=0.0619x    frame=  250 fps=4.4 q=33.0 size=       1kB time=00:00:03.54 bitrate=   1.7kbits/s speed=0.0617x    frame=  253 fps=4.3 q=33.0 size=       1kB time=00:00:03.60 bitrate=   1.6kbits/s speed=0.0618x    frame=  255 fps=4.3 q=33.0 size=       1kB time=00:00:03.64 bitrate=   1.6kbits/s speed=0.062x    frame=  257 fps=4.3 q=33.0 size=       1kB time=00:00:03.68 bitrate=   1.6kbits/s speed=0.0618x    frame=  259 fps=4.3 q=33.0 size=       1kB time=00:00:03.72 bitrate=   1.6kbits/s speed=0.0618x    frame=  261 fps=4.3 q=33.0 size=    5133kB time=00:00:03.76 bitrate=11179.7kbits/s speed=0.0616x    frame=  264 fps=4.3 q=33.0 size=    5133kB time=00:00:03.82 bitrate=11004.1kbits/s speed=0.062x    frame=  266 fps=4.3 q=33.0 size=    5133kB time=00:00:03.86 bitrate=10890.1kbits/s speed=0.062x    frame=  269 fps=4.2 q=33.0 size=    5133kB time=00:00:03.92 bitrate=10723.5kbits/s speed=0.0619x    frame=  270 fps=4.2 q=33.0 size=    5133kB time=00:00:03.94 bitrate=10669.1kbits/s speed=0.0615x    frame=  274 fps=4.2 q=33.0 size=    5133kB time=00:00:04.02 bitrate=10456.8kbits/s speed=0.062x    frame=  275 fps=4.2 q=33.0 size=    5133kB time=00:00:04.04 bitrate=10405.0kbits/s speed=0.0618x    frame=  277 fps=4.2 q=33.0 size=    5133kB time=00:00:04.08 bitrate=10303.1kbits/s speed=0.0616x    frame=  280 fps=4.2 q=33.0 size=    5133kB time=00:00:04.14 bitrate=10153.8kbits/s speed=0.0617x    frame=  282 fps=4.2 q=33.0 size=    5133kB time=00:00:04.18 bitrate=10056.6kbits/s speed=0.0619x    frame=  284 fps=4.2 q=33.0 size=    5133kB time=00:00:04.22 bitrate=9961.3kbits/s speed=0.0618x    frame=  287 fps=4.1 q=33.0 size=    5133kB time=00:00:04.28 bitrate=9821.7kbits/s speed=0.0618x    frame=  290 fps=4.1 q=33.0 size=    5133kB time=00:00:04.34 bitrate=9686.0kbits/s speed=0.0619x    frame=  293 fps=4.1 q=33.0 size=    5133kB time=00:00:04.40 bitrate=9553.9kbits/s speed=0.0623x    frame=  294 fps=4.1 q=33.0 size=    5133kB time=00:00:04.42 bitrate=9510.7kbits/s speed=0.0621x    frame=  296 fps=4.1 q=33.0 size=    5133kB time=00:00:04.46 bitrate=9425.4kbits/s speed=0.0619x    frame=  299 fps=4.1 q=33.0 size=    5133kB time=00:00:04.52 bitrate=9300.3kbits/s speed=0.0621x    frame=  302 fps=4.1 q=33.0 size=    5133kB time=00:00:04.58 bitrate=9178.5kbits/s speed=0.0618x    frame=  306 fps=4.1 q=33.0 size=    5133kB time=00:00:04.66 bitrate=9021.0kbits/s speed=0.0623x    frame=  308 fps=4.1 q=33.0 size=    5133kB time=00:00:04.70 bitrate=8944.2kbits/s speed=0.0621x    frame=  310 fps=4.1 q=33.0 size=    5133kB time=00:00:04.74 bitrate=8868.8kbits/s speed=0.0622x    frame=  313 fps=4.1 q=33.0 size=    5133kB time=00:00:04.80 bitrate=8757.9kbits/s speed=0.0623x    frame=  314 fps=4.0 q=33.0 size=    5133kB time=00:00:04.82 bitrate=8721.6kbits/s speed=0.0621x    frame=  317 fps=4.0 q=34.0 size=    5133kB time=00:00:04.88 bitrate=8614.4kbits/s speed=0.0623x    frame=  320 fps=4.0 q=34.0 size=    6871kB time=00:00:04.94 bitrate=11391.2kbits/s speed=0.0622x    frame=  322 fps=4.0 q=34.0 size=    6871kB time=00:00:04.98 bitrate=11299.7kbits/s speed=0.0623x    frame=  326 fps=4.0 q=34.0 size=    6871kB time=00:00:05.06 bitrate=11121.1kbits/s speed=0.0621x    frame=  330 fps=4.0 q=35.0 size=    6871kB time=00:00:05.14 bitrate=10948.0kbits/s speed=0.0626x    frame=  332 fps=4.0 q=35.0 size=    6871kB time=00:00:05.18 bitrate=10863.5kbits/s speed=0.0623x    frame=  334 fps=4.0 q=35.0 size=    6871kB time=00:00:05.22 bitrate=10780.3kbits/s speed=0.0622x    frame=  335 fps=4.0 q=35.0 size=    6871kB time=00:00:05.24 bitrate=10739.1kbits/s speed=0.0621x    frame=  339 fps=4.0 q=35.0 size=    6871kB time=00:00:05.32 bitrate=10577.7kbits/s speed=0.0623x    frame=  341 fps=4.0 q=34.0 size=    6871kB time=00:00:05.36 bitrate=10498.7kbits/s speed=0.0621x    frame=  342 fps=3.9 q=34.0 size=    6871kB time=00:00:05.38 bitrate=10459.7kbits/s speed=0.062x    frame=  344 fps=3.9 q=34.0 size=    6871kB time=00:00:05.42 bitrate=10382.5kbits/s speed=0.0621x    frame=  347 fps=3.9 q=34.0 size=    6871kB time=00:00:05.48 bitrate=10268.9kbits/s speed=0.0623x    frame=  349 fps=3.9 q=34.0 size=    6871kB time=00:00:05.52 bitrate=10194.5kbits/s speed=0.0621x    frame=  350 fps=3.9 q=34.0 size=    6871kB time=00:00:05.54 bitrate=10157.7kbits/s speed=0.0619x    frame=  354 fps=3.9 q=34.0 size=    6871kB time=00:00:05.62 bitrate=10013.1kbits/s speed=0.0622x    frame=  356 fps=3.9 q=34.0 size=    6871kB time=00:00:05.66 bitrate=9942.4kbits/s speed=0.062x    frame=  358 fps=3.9 q=34.0 size=    6871kB time=00:00:05.70 bitrate=9872.6kbits/s speed=0.062x    frame=  361 fps=3.9 q=34.0 size=    6871kB time=00:00:05.76 bitrate=9769.8kbits/s speed=0.0622x    frame=  363 fps=3.9 q=34.0 size=    6871kB time=00:00:05.80 bitrate=9702.4kbits/s speed=0.0622x    frame=  364 fps=3.9 q=34.0 size=    6871kB time=00:00:05.82 bitrate=9669.1kbits/s speed=0.0619x    frame=  368 fps=3.9 q=34.0 size=    6871kB time=00:00:05.90 bitrate=9538.0kbits/s speed=0.0623x    frame=  370 fps=3.9 q=34.0 size=    6871kB time=00:00:05.94 bitrate=9473.8kbits/s speed=0.0622x    frame=  372 fps=3.9 q=34.0 size=    6871kB time=00:00:05.98 bitrate=9410.4kbits/s speed=0.062x    frame=  374 fps=3.8 q=34.0 size=    6871kB time=00:00:06.02 bitrate=9347.9kbits/s speed=0.062x    frame=  378 fps=3.8 q=34.0 size=    6871kB time=00:00:06.10 bitrate=9225.3kbits/s speed=0.0619x    frame=  382 fps=3.8 q=34.0 size=    6871kB time=00:00:06.18 bitrate=9105.9kbits/s speed=0.0619x    frame=  386 fps=3.8 q=34.0 size=    6871kB time=00:00:06.26 bitrate=8989.6kbits/s speed=0.0623x    frame=  388 fps=3.8 q=34.0 size=    6871kB time=00:00:06.30 bitrate=8932.5kbits/s speed=0.0622x    frame=  390 fps=3.8 q=34.0 size=    6871kB time=00:00:06.34 bitrate=8876.2kbits/s speed=0.062x    frame=  392 fps=3.8 q=34.0 size=    6871kB time=00:00:06.38 bitrate=8820.5kbits/s speed=0.062x    frame=  396 fps=3.8 q=34.0 size=    6871kB time=00:00:06.46 bitrate=8711.3kbits/s speed=0.0623x    frame=  398 fps=3.8 q=34.0 size=    6871kB time=00:00:06.50 bitrate=8657.7kbits/s speed=0.0623x    frame=  399 fps=3.8 q=34.0 size=    6871kB time=00:00:06.52 bitrate=8631.2kbits/s speed=0.062x    frame=  402 fps=3.8 q=34.0 size=    6871kB time=00:00:06.58 bitrate=8552.5kbits/s speed=0.062x    frame=  404 fps=3.8 q=34.0 size=    6871kB time=00:00:06.62 bitrate=8500.8kbits/s speed=0.0621x    frame=  406 fps=3.8 q=34.0 size=    6871kB time=00:00:06.66 bitrate=8449.7kbits/s speed=0.0621x    frame=  410 fps=3.8 q=34.0 size=    6871kB time=00:00:06.74 bitrate=8349.5kbits/s speed=0.0621x    frame=  412 fps=3.8 q=34.0 size=    6871kB time=00:00:06.78 bitrate=8300.2kbits/s speed=0.0622x    frame=  414 fps=3.8 q=34.0 size=    6871kB time=00:00:06.82 bitrate=8251.5kbits/s speed=0.0621x    frame=  417 fps=3.8 q=34.0 size=    6871kB time=00:00:06.88 bitrate=8179.6kbits/s speed=0.0621x    frame=  421 fps=3.8 q=34.0 size=    6871kB time=00:00:06.96 bitrate=8085.6kbits/s speed=0.0622x    frame=  424 fps=3.8 q=34.0 size=    6871kB time=00:00:07.02 bitrate=8016.5kbits/s speed=0.0624x    frame=  425 fps=3.7 q=34.0 size=    6871kB time=00:00:07.04 bitrate=7993.7kbits/s speed=0.062x    frame=  429 fps=3.8 q=34.0 size=    6871kB time=00:00:07.12 bitrate=7903.9kbits/s speed=0.0624x    frame=  431 fps=3.8 q=34.0 size=    6871kB time=00:00:07.16 bitrate=7859.8kbits/s speed=0.0624x    frame=  432 fps=3.7 q=34.0 size=    6871kB time=00:00:07.18 bitrate=7837.9kbits/s speed=0.0622x    frame=  434 fps=3.7 q=34.0 size=    6871kB time=00:00:07.22 bitrate=7794.5kbits/s speed=0.0621x    frame=  438 fps=3.7 q=34.0 size=    6871kB time=00:00:07.30 bitrate=7709.0kbits/s speed=0.0624x    frame=  440 fps=3.7 q=34.0 size=    6871kB time=00:00:07.34 bitrate=7667.0kbits/s speed=0.0624x    frame=  441 fps=3.7 q=34.0 size=    6871kB time=00:00:07.36 bitrate=7646.2kbits/s speed=0.0621x    frame=  443 fps=3.7 q=34.0 size=    6871kB time=00:00:07.40 bitrate=7604.9kbits/s speed=0.0621x    frame=  447 fps=3.7 q=34.0 size=    6871kB time=00:00:07.48 bitrate=7523.6kbits/s speed=0.0625x    frame=  448 fps=3.7 q=34.0 size=    6871kB time=00:00:07.50 bitrate=7503.5kbits/s speed=0.0622x    frame=  450 fps=3.7 q=34.0 size=    6871kB time=00:00:07.54 bitrate=7463.7kbits/s speed=0.0622x    frame=  452 fps=3.7 q=34.0 size=    6871kB time=00:00:07.58 bitrate=7424.3kbits/s speed=0.0622x    frame=  456 fps=3.7 q=34.0 size=    6871kB time=00:00:07.66 bitrate=7346.8kbits/s speed=0.0623x    frame=  458 fps=3.7 q=34.0 size=    6871kB time=00:00:07.70 bitrate=7308.6kbits/s speed=0.0624x    frame=  460 fps=3.7 q=34.0 size=    6871kB time=00:00:07.74 bitrate=7270.9kbits/s speed=0.0624x    frame=  462 fps=3.7 q=34.0 size=    6871kB time=00:00:07.78 bitrate=7233.5kbits/s speed=0.0623x    frame=  464 fps=3.7 q=34.0 size=    6871kB time=00:00:07.82 bitrate=7196.5kbits/s speed=0.0624x    frame=  466 fps=3.7 q=34.0 size=    6871kB time=00:00:07.86 bitrate=7159.9kbits/s speed=0.0622x    frame=  468 fps=3.7 q=34.0 size=    6871kB time=00:00:07.90 bitrate=7123.6kbits/s speed=0.0623x    frame=  471 fps=3.7 q=34.0 size=    6871kB time=00:00:07.96 bitrate=7069.9kbits/s speed=0.0625x    frame=  473 fps=3.7 q=34.0 size=    6871kB time=00:00:08.00 bitrate=7034.6kbits/s speed=0.0623x    frame=  475 fps=3.7 q=34.0 size=    6871kB time=00:00:08.04 bitrate=6999.6kbits/s speed=0.0623x    frame=  479 fps=3.7 q=34.0 size=    6871kB time=00:00:08.12 bitrate=6930.6kbits/s speed=0.0622x    frame=  482 fps=3.7 q=34.0 size=    6871kB time=00:00:08.18 bitrate=6879.8kbits/s speed=0.0624x    frame=  484 fps=3.7 q=34.0 size=    6871kB time=00:00:08.22 bitrate=6846.3kbits/s speed=0.0624x    frame=  485 fps=3.7 q=34.0 size=    6871kB time=00:00:08.24 bitrate=6829.7kbits/s speed=0.0623x    frame=  487 fps=3.7 q=34.0 size=    6871kB time=00:00:08.28 bitrate=6796.7kbits/s speed=0.0622x    frame=  490 fps=3.7 q=34.0 size=   12016kB time=00:00:08.34 bitrate=11801.3kbits/s speed=0.0624x    frame=  492 fps=3.7 q=34.0 size=   12016kB time=00:00:08.38 bitrate=11745.0kbits/s speed=0.0623x    frame=  494 fps=3.7 q=34.0 size=   12016kB time=00:00:08.42 bitrate=11689.2kbits/s speed=0.0623x    frame=  497 fps=3.7 q=34.0 size=   12016kB time=00:00:08.48 bitrate=11606.5kbits/s speed=0.0623x    frame=  499 fps=3.7 q=33.0 size=   12016kB time=00:00:08.52 bitrate=11552.0kbits/s speed=0.0623x    frame=  500 fps=3.6 q=33.0 size=   12016kB time=00:00:08.54 bitrate=11525.0kbits/s speed=0.0621x    frame=  500 fps=3.2 q=-1.0 Lsize=   14677kB time=00:00:09.94 bitrate=12094.6kbits/s speed=0.063x    
video:14672kB audio:0kB subtitle:0kB other streams:0kB global headers:0kB muxing overhead: 0.030916%
bench: utime=613.368s
bench: maxrss=2610812kB
[libx264 @ 0x40b6120] frame I:3     Avg QP:29.09  size:614082
[libx264 @ 0x40b6120] frame P:138   Avg QP:32.46  size: 55177
[libx264 @ 0x40b6120] frame B:359   Avg QP:34.28  size: 15507
[libx264 @ 0x40b6120] consecutive B-frames:  1.0%  2.0% 23.4% 73.6%
[libx264 @ 0x40b6120] mb I  I16..4: 14.3% 80.8%  4.9%
[libx264 @ 0x40b6120] mb P  I16..4:  0.1%  0.1%  0.0%  P16..4: 43.4%  2.4%  8.1%  0.0%  0.0%    skip:45.8%
[libx264 @ 0x40b6120] mb B  I16..4:  0.0%  0.0%  0.0%  B16..8: 47.8%  0.2%  0.0%  direct: 0.2%  skip:51.7%  L0:49.0% L1:51.0% BI: 0.0%
[libx264 @ 0x40b6120] final ratefactor: 25.94
[libx264 @ 0x40b6120] 8x8 transform intra:78.4% inter:65.4%
[libx264 @ 0x40b6120] direct mvs  spatial:99.2% temporal:0.8%
[libx264 @ 0x40b6120] coded y,uvDC,uvAC intra: 94.5% 80.7% 64.4% inter: 3.8% 4.7% 0.0%
[libx264 @ 0x40b6120] i16 v,h,dc,p: 19% 24% 31% 26%
[libx264 @ 0x40b6120] i8 v,h,dc,ddl,ddr,vr,hd,vl,hu:  5%  7%  1% 14% 18% 14% 19%  9% 12%
[libx264 @ 0x40b6120] i4 v,h,dc,ddl,ddr,vr,hd,vl,hu:  3%  4%  1% 14% 17% 15% 20% 11% 15%
[libx264 @ 0x40b6120] i8c dc,h,v,p: 48% 25% 14% 12%
[libx264 @ 0x40b6120] Weighted P-Frames: Y:0.7% UV:0.0%
[libx264 @ 0x40b6120] ref P L0: 55.5% 17.8% 14.2%  3.2%  3.1%  2.4%  2.8%  0.9%  0.0%
[libx264 @ 0x40b6120] ref B L0: 76.2%  8.7%  7.9%  2.5%  2.3%  1.7%  0.7%
[libx264 @ 0x40b6120] ref B L1: 95.7%  4.3%
[libx264 @ 0x40b6120] kb/s:12019.01
